<svg xmlns="http://www.w3.org/2000/svg"><defs><font id="Karla-Bold" horiz-adv-x="304"><font-face font-family="Karla" font-weight="700" ascent="800" descent="-200" x-height="486" cap-height="649" bbox="-76 -251 976 913" underline-thickness="50" underline-position="-150" unicode-range="U+0020-2212"/><glyph glyph-name=".notdef" horiz-adv-x="589"/><glyph glyph-name=".null" horiz-adv-x="0"/><glyph glyph-name="nonmarkingreturn" horiz-adv-x="589"/><glyph glyph-name="space" horiz-adv-x="253"/><glyph glyph-name="space" horiz-adv-x="253"/><glyph glyph-name="exclam" unicode="!" horiz-adv-x="293" d="M86 664h128l-14-445H99zm5-651Q68 35 68 69t23 57 59 23 60-23 24-57-24-56-60-22-59 22z"/><glyph glyph-name="quotedbl" unicode="&quot;" horiz-adv-x="383" d="M150 686l-16-238H47L32 686h118zm201 0l-16-238h-87l-15 238h118z"/><glyph glyph-name="numbersign" unicode="#" horiz-adv-x="678" d="M396 164H260L246 33H135l14 131H57l7 77h93l17 158H81l8 78h93l14 129h111l-14-129h136l14 129h111l-14-129h94l-9-78h-93l-17-158h94l-8-77h-94L493 33H382zm-128 77h136l17 158H285z"/><glyph glyph-name="dollar" unicode="$" horiz-adv-x="689" d="M475 343q75-26 112-65.5T624 173q0-71-58-123-64-55-179-63v-88h-84v90Q199-1 134 51q-69 56-69 152h117q0-48 31-73t90-32v194l-50 17q-84 28-130 67.5T77 487t57.5 118.5T303 661v76h84v-77q97-10 148-60t65-130H483q-5 30-29.5 53.5T387 556V374zm-9-220q25 22 25 52 0 57-72 84l-32 12V96q54 5 79 27zM230.5 532Q206 511 206 483t16-44.5 51-28.5l30-12v161q-48-6-72.5-27z"/><glyph glyph-name="percent" unicode="%" horiz-adv-x="765" d="M198 662q27 0 52-9.5t44-28.5q41-39 41-113 0-73-41-114-38-38-97-38-57 0-95 38-41 41-41 114 0 74 41 113 39 38 96 38zm48-151q0 76-49 76-48 0-48-76 0-77 48-77 49 0 49 77zm300 138h119L226 0H106zm27-359q57 0 96-38 41-39 41-113T669 24q-38-38-96-38t-96 38q-41 41-41 115t41 113q39 38 96 38zm0-75q-48 0-48-76.5T573 62q21 0 35 17.5t14 59-14 59-35 17.5z"/><glyph glyph-name="ampersand" unicode="&amp;" horiz-adv-x="965" d="M764 344q-44-125-110-207l17-15q18-16 34-24t39.5-8 40.5 17.5 19 56.5h107q-2-82-40.5-130T756-14q-48 0-88.5 19T582 65Q482-14 360-14q-112 0-190 57-78 58-78 142 0 130 183 159l-16 15q-72 65-72 143 0 69 57 112 61 46 162 46 97 0 158-46 56-43 56-108t-41.5-109.5T452 320l127-115q61 73 105 183zm-422-60q-120-17-120-92 0-42 36.5-70.5T361 93q76 0 143 44zm123.5 144q24.5 26 24.5 58.5t-23 52-64 19.5-63.5-21.5T317 485q0-44 47-85l23-21q54 23 78.5 49z"/><glyph glyph-name="quotesingle" unicode="'" horiz-adv-x="180" d="M149 677l-16-238H46L31 677h118z"/><glyph glyph-name="parenleft" unicode="(" horiz-adv-x="400" d="M282-118Q73 68 73 318q0 252 209 436l85-62q-86-90-129-180.5T195 318t43-192.5T367-54z"/><glyph glyph-name="parenright" unicode=")" horiz-adv-x="400" d="M118 754q209-186 209-436 0-248-209-436L32-54q87 90 130 179.5T205 318t-43.5 193.5T32 692z"/><glyph glyph-name="asterisk" unicode="*" horiz-adv-x="409" d="M161 528L50 565l30 70 99-50-12 119h80l-12-119 99 52 30-71-109-37 86-82-59-51-74 101-76-101-57 51z"/><glyph glyph-name="plus" unicode="+" horiz-adv-x="544" d="M331 491V297h195V194H331V0H213v194H18v103h195v194h118z"/><glyph glyph-name="comma" unicode="," horiz-adv-x="253" d="M68.5 17.5Q49 35 49 64.5T72 115t63 21 65-31 25-76q0-73-66-133-21-19-47-32L24-92q33 17 58.5 38T116-5Q88 0 68.5 17.5z"/><glyph glyph-name="hyphen" unicode="-" horiz-adv-x="373" d="M46 353h281V250H46v103z"/><glyph glyph-name="period" unicode="." horiz-adv-x="215" d="M47 13Q24 35 24 69t23 57 59 23 60-23 24-57-24-56-60-22-59 22z"/><glyph glyph-name="slash" unicode="/" horiz-adv-x="472" d="M310 745h121L173-81H53z"/><glyph glyph-name="zero" unicode="0" horiz-adv-x="633" d="M316 662q60 0 109.5-20.5T510 579q76-89 76-255T510 69q-70-83-193-83-124 0-195 83-75 87-75 255t75 255q71 83 194 83zm109.5-166.5Q387 555 316.5 555t-109-59.5T169 324t38.5-170.5 109-58.5 109 58.5T464 324t-38.5 171.5z"/><glyph glyph-name="one" unicode="1" horiz-adv-x="357" d="M42 600q75 11 132 53h89V0H145v512q-51-25-103-25v113z"/><glyph glyph-name="two" unicode="2" horiz-adv-x="605" d="M178 108h371V0H60v111q0 117 83 170 28 18 65 32l133 51q44 17 64.5 42.5T426 470t-27 63.5-77 25.5-82.5-24-37.5-71H71q2 95 73 149 65 49 175 49 101 0 167-54 67-56 67-137t-40.5-129.5T387 260l-135-52q-39-15-56.5-33.5T178 127v-19z"/><glyph glyph-name="three" unicode="3" horiz-adv-x="622" d="M309 555q-109 0-127-83H58q10 96 78 145 64 45 168 45 107 0 174-50 70-51 70-131 0-50-27-86.5T441 340q59-20 94.5-59.5T571 190t-18.5-87T500 41q-72-55-187-55-110 0-185 56-84 61-84 162h126q3-51 41.5-80T312 95t96.5 27.5 34.5 70-31.5 66.5-99.5 24h-86v93h74q57 0 89 24.5t32 64.5-27.5 65-84.5 25z"/><glyph glyph-name="four" unicode="4" horiz-adv-x="595" d="M468 656V245h113V144H468V0H351v144H22v89l332 423h114zM162 233h195v248z"/><glyph glyph-name="five" unicode="5" horiz-adv-x="582" d="M219 395q54 9 103 9 101 0 161-48.5T543 216q0-99-67-163-71-67-179-67-107 0-171 54-67 56-69 154h121q0-51 34-75t87-24 87.5 34.5T421 216q0 99-134 99H89l30 334h389V541H233z"/><glyph glyph-name="six" unicode="6" horiz-adv-x="607" d="M425 471q-5 39-28 61.5T333.5 555t-71-17.5T210 487q-44-68-44-184 0-43 3-65 11 86 65 126 47 34 117 34 90 0 149-58 58-56 58-148T493 43 323-14q-122 0-199 92T47 313q0 166 77 259 75 90 204 90 98 0 158-52 61-53 65-139H425zM242.5 272.5Q210 244 210 197t32.5-74.5 80-27.5 80.5 27.5 33 74.5-34 77q-31 27-79 27t-80.5-28.5z"/><glyph glyph-name="seven" unicode="7" horiz-adv-x="498" d="M480 649V536L203 0H44l297 535H24v114h456z"/><glyph glyph-name="eight" unicode="8" horiz-adv-x="647" d="M502 609.5Q575 557 575 476q0-49-33.5-87.5T445 339q83-33 115-67 38-40 38-100 0-83-72-134-75-52-203-52-123 0-199 54-75 52-75 135 0 61 42.5 98.5T200 319q-87 42-118 109-11 25-11 57 0 82 65.5 129.5t179 47.5T502 609.5zM303 278q-91-6-123-58-9-15-9-35t12-37 33-29q40-24 112.5-24t110 19.5 37.5 48-18.5 46T407 239zm-44 133l75-29q48 0 84 24 35 24 35 63t-36 62.5-94 23.5q-56 0-93-21t-37-58.5 66-64.5z"/><glyph glyph-name="nine" unicode="9" horiz-adv-x="610" d="M293 95q152 0 152 250 0 27-4 59-13-78-65-118-46-35-117-35-91 0-148.5 57.5T53 456q0 92 65 149t169 57q118 0 197-90 80-92 80-237 0-251-150-325-50-24-108.5-24t-102 15T128 43q-68 57-68 149h123q2-45 32.5-71T293 95zm-85.5 431.5Q175 499 175 450.5t32.5-75.5 80.5-27q47 0 80 28 33 30 33 75 0 46-33 75-32 28-80 28t-80.5-27.5z"/><glyph glyph-name="colon" unicode=":" horiz-adv-x="270" d="M74 30Q51 52 51 86t23 57 59 23 60-23 24-57-24-56-60-22-59 22zm0 297q-23 22-23 56t23 57 59 23 60-23 24-57-24-56-60-22-59 22z"/><glyph glyph-name="semicolon" unicode=";" horiz-adv-x="308" d="M98.5 17.5Q79 35 79 64.5t23 50.5 63 21 65-31 25-76q0-73-66-133-21-19-47-32L54-92q33 17 58.5 38T146-5q-28 5-47.5 22.5zM108 327q-23 22-23 56t23 57 59 23 60-23 24-57-24-56-60-22-59 22z"/><glyph glyph-name="less" unicode="&lt;" horiz-adv-x="502" d="M457 527L166 322l291-204-78-90L45 269v107l334 241z"/><glyph glyph-name="equal" unicode="=" horiz-adv-x="506" d="M427 198V95H79v103h348zm0 210V306H79v102h348z"/><glyph glyph-name="greater" unicode="&gt;" horiz-adv-x="502" d="M123 617l334-241V269L123 28l-78 90 290 204L45 527z"/><glyph glyph-name="question" unicode="?" horiz-adv-x="517" d="M485 481q0-53-26-88.5T377 329q-47-24-61.5-41T297 256.5t-4-33.5v-29H175v40q0 90 54 128 19 14 56 33t53.5 38.5 16.5 50-25 51-74 20.5-77-23.5-32-61.5H24q5 87 64 139.5T253.5 662t169-52T485 481zM177.5 121q22.5 22 59 22t60.5-22 24-56-24-56.5T236.5-14t-59 22.5T155 65t22.5 56z"/><glyph glyph-name="at" unicode="@" horiz-adv-x="1027" d="M609 280q0 31-11.5 50T560 349t-49-10.5-42-30.5q-44-48-44-114 0-45 23.5-68.5T507 102t58.5 19.5T609 180v100zm95-130q0-51 35-51 16 0 36.5 10.5T814 144q43 56 43 149 0 116-77 187-83 76-220 76-165 0-270-102-104-100-104-252 0-147 99-232 104-91 284-91v-97q-114 0-206.5 33.5T204-93.5 102.5 42 67 215.5t37 179 103 143 156.5 92 190 32.5T730 633.5 861.5 555 946 437.5 976 297t-21-126.5-54.5-90-77-55.5-90-19T657 23.5 618 73l-6 16q-20-38-48.5-60.5T493 6t-71.5 14T369 58q-51 55-51 134 0 103 72 176 70 72 169 72 66 0 105.5-39.5T704 281V150z"/><glyph glyph-name="A" unicode="A" horiz-adv-x="626" d="M243 649h148L604 0H479l-45 140H193L147 0H22zm-20-420h182l-90 279z"/><glyph glyph-name="B" unicode="B" horiz-adv-x="648" d="M93 649h262q108 0 167-51 56-47 56-121 0-55-30.5-94T462 328q55-11 91-49.5t36-98.5q0-120-119-164Q425 0 356 0H93v649zm260-546q57 0 82.5 23t25.5 61-26.5 61.5T353 272H211V103h142zM211 375h139q53 0 80 23t27 62.5-26.5 63T351 547H211V375z"/><glyph glyph-name="C" unicode="C" horiz-adv-x="634" d="M326 662q60 0 104-14.5t76-40.5q63-51 82-143l-126-23q-16 51-49.5 82.5T329 555q-68 0-110-57-45-62-45-171.5t40-171T323 94t104 33.5 35 86.5h127q0-109-69.5-168.5T329-14q-129 0-205 90-77 92-77 250 0 160 79 250 76 86 200 86z"/><glyph glyph-name="D" unicode="D" horiz-adv-x="686" d="M303 649q148 0 239-88 92-88 92-237 0-148-92-236Q451 0 303 0H92v649h211zm-92-542h92q92 0 149 62 54 60 54 155 0 97-54 157-56 61-149 61h-92V107z"/><glyph glyph-name="E" unicode="E" horiz-adv-x="586" d="M92 649h418V547H210V376h281V274H210V103h300V0H92v649z"/><glyph glyph-name="F" unicode="F" horiz-adv-x="547" d="M93 649h409V547H211V376h266V275H211V0H93v649z"/><glyph glyph-name="G" unicode="G" horiz-adv-x="677" d="M491 103Q449-14 330-14q-122 0-201 92-82 95-82 243 0 156 88 250 85 91 219 91 91 0 152.5-39.5T603 498l-121-28q-53 85-134 85-74 0-123-63-51-64-51-171 0-101 46-164 45-62 120-62 64 0 105 41 42 42 42 115v4l-146 3v76h259V0h-96z"/><glyph glyph-name="H" unicode="H" horiz-adv-x="706" d="M211 649V378h283v271h118V0H494v275H211V0H93v649h118z"/><glyph glyph-name="I" unicode="I" d="M93 649h118V0H93v649z"/><glyph glyph-name="J" unicode="J" horiz-adv-x="444" d="M16 27v118q77-44 149-44 43 0 62.5 25t19.5 76v447h119V202q0-112-54-167-48-49-132-49T16 27z"/><glyph glyph-name="K" unicode="K" horiz-adv-x="654" d="M212 649V382l256 267h162L344 357 649 0H496L265 275l-53-54V0H93v649h119z"/><glyph glyph-name="L" unicode="L" horiz-adv-x="494" d="M211 103h267V0H93v649h118V103z"/><glyph glyph-name="M" unicode="M" horiz-adv-x="874" d="M262 649l178-386 178 386h163V0H662v493L478 71h-77L211 507V0H93v649h169z"/><glyph glyph-name="N" unicode="N" horiz-adv-x="717" d="M220 649l286-460v460h118V0H504L209 476V0H91v649h129z"/><glyph glyph-name="O" unicode="O" horiz-adv-x="683" d="M342 662q65 0 119-21.5t93-63.5q82-88 82-252 0-165-82-255-78-84-213-84-134 0-212 86-82 89-82 253 0 166 82 254 77 83 213 83zm125.5-166.5Q421 556 342 556t-126-60.5-47-172 47-171T342 93t125.5 59.5 46.5 171-46.5 172z"/><glyph glyph-name="P" unicode="P" horiz-adv-x="581" d="M490.5 595.5Q552 542 552 442.5t-61.5-153T319 236H209V0H90v649h229q110 0 171.5-53.5zM319 339q55 0 83 29t28 74.5-28 75-83 29.5H209V339h110z"/><glyph glyph-name="Q" unicode="Q" horiz-adv-x="686" d="M628-162q-41-18-89-18-97 0-164 101l-43 65q-129 2-206 88-79 91-79 251 0 166 82 254 77 83 212 83 134 0 213-85 82-88 82-252 0-135-52-215.5T444 1l16-25q24-37 71-39 43 0 97 23v-122zM467.5 495.5Q421 556 342 556t-126-60.5-47-172 47-171T342 93t125.5 59.5 46.5 171-46.5 172z"/><glyph glyph-name="R" unicode="R" horiz-adv-x="644" d="M575 450q0-69-39-118t-112-68L598 0H444L301 253h-90V0H93v649h240q115 0 179-55 63-53 63-144zM322 332q65 0 98 29.5t33 78-30 78-90 29.5H211V332h111z"/><glyph glyph-name="S" unicode="S" horiz-adv-x="638" d="M434 470q-16 85-120 85-51 0-79.5-20.5T206 485t18.5-45.5T282 409l141-55q72-28 111-70.5T573 177q0-88-66-139.5T319-14q-108 0-175 53-75 58-79 164h117q0-80 83-101 25-7 66-7t76 20.5 35 55-19 53-62 34.5l-129 51q-75 29-115 68T77 485q0 81 63 128 64 49 173.5 49t169-50.5T551 470H434z"/><glyph glyph-name="T" unicode="T" horiz-adv-x="532" d="M6 649h520V547H325V0H207v547H6v102z"/><glyph glyph-name="U" unicode="U" horiz-adv-x="690" d="M201 649V245q0-80 40.5-115T346 95t104.5 35T491 245v404h118V245q0-124-69-191.5T346-14 152 53.5 83 245v404h118z"/><glyph glyph-name="V" unicode="V" horiz-adv-x="607" d="M145 649l158-501 160 501h124L364 0H240L20 649h125z"/><glyph glyph-name="W" unicode="W" horiz-adv-x="966" d="M152 649l143-493 139 450h80l147-452 152 495h133L723 0H599L477 366 356 0H232L20 649h132z"/><glyph glyph-name="X" unicode="X" horiz-adv-x="684" d="M649 0H501L330 230 178 0H34l229 323L33 649h145l164-234 142 234h143L408 325z"/><glyph glyph-name="Y" unicode="Y" horiz-adv-x="604" d="M156 649l143-259 150 259h139L357 268V0H239v268L16 649h140z"/><glyph glyph-name="Z" unicode="Z" horiz-adv-x="629" d="M73 102l343 438-343 1v108h491V548L222 109l342-1V0H73v102z"/><glyph glyph-name="bracketleft" unicode="[" horiz-adv-x="352" d="M93 790h247V684H211V-34h129v-107H93v931z"/><glyph glyph-name="backslash" unicode="\" horiz-adv-x="472" d="M41 746h120L419-80H298z"/><glyph glyph-name="bracketright" unicode="]" horiz-adv-x="336" d="M243-141H-4v107h129v718H-4v106h247v-931z"/><glyph glyph-name="asciicircum" unicode="^" horiz-adv-x="527" d="M20 218l198 385h96l197-385H381L266 464 150 218H20z"/><glyph glyph-name="underscore" unicode="_" horiz-adv-x="768" d="M55-55h659v-103H55v103z"/><glyph glyph-name="grave" unicode="`" horiz-adv-x="356" d="M66 900l267-132-30-74L24 798z"/><glyph glyph-name="a" unicode="a" horiz-adv-x="584" d="M253 284q58 0 134-19v48q0 51-20.5 75.5t-67 24.5-71.5-18.5-25-52.5H74q0 83 58.5 120T296 499q150 0 194-105 15-36 15-85V0H402l-9 65q-47-79-144-79-94 0-146 46-48 44-48 111.5t53 104T253 284zm134-94q-59 16-110 16-96 0-96-64 0-27 22-46.5T273.5 76t80 32.5T387 190z"/><glyph glyph-name="b" unicode="b" horiz-adv-x="614" d="M563 245q0-114-65-188-63-71-157-71-45 0-82.5 24T199 84L170 0H93v686h118V425q46 74 137.5 74t153-70T563 245zm-352 28v-64q2-51 37-84 33-32 80.5-32t81.5 41.5T444 244t-33.5 108.5T327 393t-83-33-33-87z"/><glyph glyph-name="c" unicode="c" horiz-adv-x="530" d="M278 499q46 0 82.5-15.5T422 443q50-48 59-121l-119-3q-8 32-29.5 53T283 393t-48-8.5-35-26.5q-34-42-34-116t32-111.5T275.5 93t66 21.5T362 173h119q0-80-53-133-54-54-151-54-96 0-161 70-69 75-69 187 0 118 69 189 65 67 162 67z"/><glyph glyph-name="d" unicode="d" horiz-adv-x="614" d="M410 75q-45-89-138-89T116 57q-65 74-65 188t62 185q61 69 152 69t137-73v260h119V0h-97zM203.5 352.5Q170 312 170 244t34-109.5T290 93q43 0 77 34 35 35 35 88v63q-2 52-35 85-30 30-80 30t-83.5-40.5z"/><glyph glyph-name="e" unicode="e" horiz-adv-x="530" d="M469.5 354q12.5-42 12.5-77t-4-63H164q2-59 29-96t82-37q73 0 87 64h119q-12-73-67-115-57-44-139-44-96 0-161 70-67 73-67 187 0 117 67 188 64 68 161 68 101 0 157-71 25-32 37.5-74zM276 405q-50 0-78-32.5T165 289h207q0 79-50 106-19 10-46 10z"/><glyph glyph-name="f" unicode="f" horiz-adv-x="366" d="M40 486h72v57q0 75 44 115 40 36 104 36 41 0 101-12l-23-91q-28 10-50.5 10T248 588.5 231 542v-56h89v-79h-89V0H112v407H40v79z"/><glyph glyph-name="g" unicode="g" horiz-adv-x="582" d="M135 199q-59 50-59 125 0 79 62 128 60 47 137.5 47T405 470q6 57 49 92 42 35 99 35l-6-113q-86 0-89-57 37-46 37-94t-17-80.5-46-54.5q-60-48-146-48-49 0-89 15-40-12-40-48 0-45 76-45h163q166 0 166-116 0-39-19.5-76.5T486-187q-82-64-206-64-120 0-195 49-70 47-70 115 0 45 27.5 71.5T115 18q-59 36-59 89 0 35 22 58.5t57 33.5zm90-210q-94-4-94-71 0-34 39.5-54.5T264-157t84.5 9 51.5 24q45 30 45 72 0 18-12.5 29.5T396-11H225zm130.5 402.5Q333 417 287 417t-70-25.5-24-66 24-66.5 70-26 68.5 26 22.5 66.5-22.5 66z"/><glyph glyph-name="h" unicode="h" horiz-adv-x="623" d="M211 407q50 92 146 92t141.5-59T544 284V0H426v284q0 54-26 81.5T327 393t-80.5-42T211 225V0H93v686h118V407z"/><glyph glyph-name="i" unicode="i" horiz-adv-x="328" d="M103 487h118V0H103v487zM89 643q0 32 19 50.5t54 18.5q34 0 53.5-18.5T235 643t-19.5-50.5T162 574q-35 0-54 18.5T89 643z"/><glyph glyph-name="j" unicode="j" horiz-adv-x="335" d="M95 643q0 32 19.5 50.5t54 18.5 53.5-18.5 19-50.5-19-50.5-53.5-18.5-54 18.5T95 643zM-74-118q60-30 103-30t62 20.5T110-56v544h118V-58q0-104-43.5-148.5T71.5-251-76-220z"/><glyph glyph-name="k" unicode="k" horiz-adv-x="575" d="M265 237l-54-45V0H93v686h118V315l192 171h160L348 306 575 0H431z"/><glyph glyph-name="l" unicode="l" d="M93 686h118V0H93v686z"/><glyph glyph-name="m" unicode="m" horiz-adv-x="949" d="M525 394q47 105 165 105 87 0 135-59 46-56 46-156V0H752v284q0 54-26 81.5T653 393t-77-41-32-124V0H426v284q0 54-26 81.5T327 393t-80.5-42T211 225V0H93v486h103l13-84q48 97 154 97 61 0 101.5-28t60.5-77z"/><glyph glyph-name="n" unicode="n" horiz-adv-x="623" d="M209 402q48 97 154 97 90 0 135.5-59T544 284V0H426v284q0 54-26 81.5T327 393t-80.5-42T211 225V0H93v486h103z"/><glyph glyph-name="o" unicode="o" horiz-adv-x="566" d="M284 499q49 0 92-15.5t74-47.5q69-70 69-194 0-122-69-192-62-64-166-64T116 50q-69 69-69 192 0 125 69 194 63 63 168 63zm87-140.5Q341 397 287.5 397T200 358.5 166 243t30.5-115.5T280 89t87 38.5T401 243t-30 115.5z"/><glyph glyph-name="p" unicode="p" horiz-adv-x="610" d="M201 420q46 79 140 79 90 0 154-68 68-72 68-188 0-117-69-189-64-68-153-68T211 39v-276H93v723h97zM320 93q21 0 43.5 9t40.5 28q40 42 40 112.5T409.5 353t-84 40-81-28.5T211 283v-87q0-47 33-76 31-27 76-27z"/><glyph glyph-name="q" unicode="q" horiz-adv-x="610" d="M398 63q-36-77-124-77-94 0-158 68-69 72-69 189 0 115 67 188 63 68 154 68 45 0 83.5-21.5T414 411l26 75h77V-75q0-43 10.5-57t23.5-20.5 32-12.5l-34-86q-82 20-116.5 64T398-66V63zm-32 300q-32 30-81.5 30t-84-40T166 243q0-71 40-113 35-37 85-37 41 0 72 25 33 28 35 73v87q0 55-32 85z"/><glyph glyph-name="r" unicode="r" horiz-adv-x="416" d="M211 390q44 105 132 105 17 0 43-7l-2-118q-28 6-55 6-118 0-118-163V0H93v487h118v-97z"/><glyph glyph-name="s" unicode="s" horiz-adv-x="527" d="M159 148q2-69 101-69 38 0 62.5 16.5T347 134t-15 34-47 22l-106 38Q61 269 61 362q0 62 55.5 99.5t149 37.5 144-41T462 355H351q-2 24-23 38t-60 14-60.5-15.5T186 356q0-35 59-52l115-43q57-19 87.5-48.5T478 136q0-60-57-104-59-46-156-46T109 28.5 49 148h110z"/><glyph glyph-name="t" unicode="t" horiz-adv-x="395" d="M367 12q-66-26-104-26t-66.5 9T146 22q-46 41-46 113v272H32v79h68v128h118V486h132v-79H218V139q0-60 57-60 29 0 75 16z"/><glyph glyph-name="u" unicode="u" horiz-adv-x="627" d="M416 88Q370-9 268-9 139-9 98 92q-15 35-15 85v310h118V189q0-48 23-71.5T280.5 94t56.5 9.5 40 28.5q37 43 39 115v240h118V0H416v88z"/><glyph glyph-name="v" unicode="v" horiz-adv-x="519" d="M148 486l111-369 112 369h136L326 0H193L12 486h136z"/><glyph glyph-name="w" unicode="w" horiz-adv-x="758" d="M136 486l98-347 93 320h107l93-321 99 348h118L584 0H468l-90 291L290 0H173L12 486h124z"/><glyph glyph-name="x" unicode="x" horiz-adv-x="554" d="M537 0H393L273 156 161 0H16l189 242L16 487h145l119-156 113 156h144L349 242z"/><glyph glyph-name="y" unicode="y" horiz-adv-x="504" d="M153 486l117-350 102 350h120L306-88q-29-87-70.5-125T130-251q-65 0-130 32v104q52-33 105-33 35 0 57.5 28T199-47l15 47L19 486h134z"/><glyph glyph-name="z" unicode="z" horiz-adv-x="495" d="M57 96l252 294H57v96h382v-96L195 96h244V0H57v96z"/><glyph glyph-name="braceleft" unicode="{" horiz-adv-x="391" d="M387-156q-131 0-197 70-61 65-61 182v91q0 42-6.5 57.5T96 260H71v119h25q20 0 26.5 15.5T129 452v92q0 179 141 232 49 19 117 19V688q-74 0-107.5-35.5T246 542v-96q0-48-18.5-79T180 322v-5q29-14 47.5-45t18.5-79V97q0-75 33.5-110.5T387-49v-107z"/><glyph glyph-name="bar" unicode="|" d="M93 771h118v-893H93v893z"/><glyph glyph-name="braceright" unicode="}" horiz-adv-x="391" d="M4-49q74 0 107.5 35.5T145 97v96q0 48 18.5 79t47.5 45v5q-29 14-47.5 45T145 446v96q0 75-33.5 110.5T4 688v107q131 0 198-71 60-64 60-180v-92q0-42 6.5-57.5T295 379h25V260h-25q-20 0-26.5-15.5T262 187V96q0-180-141-234-49-18-117-18v107z"/><glyph glyph-name="asciitilde" unicode="~" horiz-adv-x="570" d="M184 265q-38 0-64-61l-63 34q17 65 47.5 102.5T185 378q34 0 89-21 86-33 110-33 41 0 65 56l64-41q-40-127-138-127-33 0-102 28-37 13-55.5 19t-33.5 6z"/><glyph glyph-name="sterling" unicode="£" horiz-adv-x="602" d="M22 107h32q37 0 52 21t15 66v87H38v79h83v84q0 108 56 163t148 55q168 0 192-175H401q-5 33-25 50.5T321.5 555 263 528t-24-84v-84h171v-79H239v-79q0-65-36-95h136q50 0 71.5 18.5T437 184h129q-4-92-54-136Q456 0 340 0H22v107z"/><glyph glyph-name="dieresis" unicode="¨" horiz-adv-x="382" d="M43.5 788.5Q24 807 24 835.5T43.5 883 94 902t51-19 20-47.5-20-47T94 770t-50.5 18.5zM217 836q0 29 20 48t50.5 19 50.5-19 20-48-20-47-50.5-18-50.5 18-20 47z"/><glyph glyph-name="acute" unicode="´" horiz-adv-x="356" d="M332 798L53 694l-30 74 267 132z"/><glyph glyph-name="Agrave" unicode="À" horiz-adv-x="626" d="M243 649h148L604 0H479l-45 140H193L147 0H22zm-38 251l267-132-30-74-279 104zm18-671h182l-90 279z"/><glyph glyph-name="Aacute" unicode="Á" horiz-adv-x="626" d="M243 649h148L604 0H479l-45 140H193L147 0H22zm228 149L192 694l-30 74 267 132zM223 229h182l-90 279z"/><glyph glyph-name="Acircumflex" unicode="Â" horiz-adv-x="626" d="M243 649h148L604 0H479l-45 140H193L147 0H22zm281 103l-75-59-133 101-134-101-75 59 209 161zM223 229h182l-90 279z"/><glyph glyph-name="Atilde" unicode="Ã" horiz-adv-x="626" d="M243 649h148L604 0H479l-45 140H193L147 0H22zm143 189q32 0 53 49l50-33q-11-54-39.5-88.5T389 731q-18 0-35.5 7T310 758q-45 23-61 23-35 0-59-50l-47 28q12 61 40.5 94.5T250 887q27 0 63-18.5t48.5-24.5 24.5-6zM223 229h182l-90 279z"/><glyph glyph-name="Adieresis" unicode="Ä" horiz-adv-x="626" d="M243 649h148L604 0H479l-45 140H193L147 0H22zm-20-420h182l-90 279zm-54.5 538.5Q149 786 149 814.5t19.5 47.5 50.5 19 51-19 20-47.5-20-47-51-18.5-50.5 18.5zM342 815q0 29 20 48t50.5 19 50.5-19 20-48-20-47-50.5-18-50.5 18-20 47z"/><glyph glyph-name="Egrave" unicode="È" horiz-adv-x="588" d="M92 649h418V547H210V376h281V274H210V103h300V0H92v649zm98 251l267-132-30-74-279 104z"/><glyph glyph-name="Eacute" unicode="É" horiz-adv-x="588" d="M92 0h418v103H210v171h281v102H210v171h300v102H92V0zm364 798L177 694l-30 74 267 132z"/><glyph glyph-name="Ecircumflex" unicode="Ê" horiz-adv-x="588" d="M102 649h418V547H220V376h281V274H220V103h300V0H102v649zm418 103l-75-59-133 101-134-101-75 59 209 161z"/><glyph glyph-name="Edieresis" unicode="Ë" horiz-adv-x="588" d="M92 649h418V547H210V376h281V274H210V103h300V0H92v649zm62.5 118.5Q135 786 135 814.5t19.5 47.5 50.5 19 51-19 20-47.5-20-47-51-18.5-50.5 18.5zM328 815q0 29 20 48t50.5 19 50.5-19 20-48-20-47-50.5-18-50.5 18-20 47z"/><glyph glyph-name="Igrave" unicode="Ì" d="M93 649h118V0H93v649zM41 900l267-132-30-74L-1 798z"/><glyph glyph-name="Iacute" unicode="Í" d="M93 0h118v649H93V0zm214 798L28 694l-30 74 267 132z"/><glyph glyph-name="Icircumflex" unicode="Î" d="M93 649h118V0H93v649zm268 103l-75-59-133 101L19 693l-75 59 209 161z"/><glyph glyph-name="Idieresis" unicode="Ï" d="M93 649h118V0H93v649zM5.5 767.5Q-14 786-14 814.5T5.5 862 56 881t51-19 20-47.5-20-47T56 749 5.5 767.5zM179 815q0 29 20 48t50.5 19 50.5-19 20-48-20-47-50.5-18-50.5 18-20 47z"/><glyph glyph-name="Ntilde" unicode="Ñ" horiz-adv-x="720" d="M91 649V0h118v476L504 0h120v649H506V189L220 649H91zm338 189q32 0 53 49l50-33q-11-54-39.5-88.5T432 731q-18 0-35.5 7T352 758q-44 23-60 23-35 0-59-50l-47 28q12 61 40.5 94.5T293 887q27 0 63-18.5t48.5-24.5 24.5-6z"/><glyph glyph-name="Ograve" unicode="Ò" horiz-adv-x="683" d="M342 662q65 0 119-21.5t93-63.5q82-88 82-252 0-165-82-255-78-84-213-84-134 0-212 86-82 89-82 253 0 166 82 254 77 83 213 83zm125.5-166.5Q421 556 342 556t-126-60.5-47-172 47-171T342 93t125.5 59.5 46.5 171-46.5 172zM228 900l267-132-30-74-279 104z"/><glyph glyph-name="Oacute" unicode="Ó" horiz-adv-x="683" d="M342 662q-66 0-120-20.5T129 579q-82-88-82-254 0-164 82-253 78-86 212-86 135 0 213 84 82 90 82 255 0 164-82 252-79 85-212 85zM216 495.5Q263 556 342 556t125.5-60.5 46.5-172-46.5-171T342 93t-126 59.5-47 171 47 172zM494 798L215 694l-30 74 267 132z"/><glyph glyph-name="Ocircumflex" unicode="Ô" horiz-adv-x="683" d="M342 662q65 0 119-21.5t93-63.5q82-88 82-252 0-165-82-255-78-84-213-84-134 0-212 86-82 89-82 253 0 166 82 254 77 83 213 83zm125.5-166.5Q421 556 342 556t-126-60.5-47-172 47-171T342 93t125.5 59.5 46.5 171-46.5 172zM549 752l-75-59-133 101-134-101-75 59 209 161z"/><glyph glyph-name="Otilde" unicode="Õ" horiz-adv-x="683" d="M342 662q-66 0-120-20.5T129 579q-82-88-82-254 0-164 82-253 78-86 212-86 135 0 213 84 82 90 82 255 0 164-82 252-79 85-212 85zM216 495.5Q263 556 342 556t125.5-60.5 46.5-172-46.5-171T342 93t-126 59.5-47 171 47 172zM411 838q32 0 53 49l50-33q-11-54-39.5-88.5T414 731q-18 0-35.5 7T334 758q-44 23-60 23-35 0-59-50l-47 28q12 61 40.5 94.5T275 887q27 0 63-18.5t48.5-24.5 24.5-6z"/><glyph glyph-name="Odieresis" unicode="Ö" horiz-adv-x="683" d="M342 662q65 0 119-21.5t93-63.5q82-88 82-252 0-165-82-255-78-84-213-84-134 0-212 86-82 89-82 253 0 166 82 254 77 83 213 83zm125.5-166.5Q421 556 342 556t-126-60.5-47-172 47-171T342 93t125.5 59.5 46.5 171-46.5 172zm-274 272Q174 786 174 814.5t19.5 47.5 50.5 19 51-19 20-47.5-20-47-51-18.5-50.5 18.5zM367 815q0 29 20 48t50.5 19 50.5-19 20-48-20-47-50.5-18-50.5 18-20 47z"/><glyph glyph-name="Ugrave" unicode="Ù" horiz-adv-x="690" d="M201 649V245q0-80 40.5-115T346 95t104.5 35T491 245v404h118V245q0-124-69-191.5T346-14 152 53.5 83 245v404h118zm32 251l267-132-30-74-279 104z"/><glyph glyph-name="Uacute" unicode="Ú" horiz-adv-x="690" d="M83 649V245q0-124 69-191.5T346-14t194 67.5T609 245v404H491V245q0-80-40.5-115T346 95t-104.5 35T201 245v404H83zm416 149L220 694l-30 74 267 132z"/><glyph glyph-name="Ucircumflex" unicode="Û" horiz-adv-x="690" d="M201 649V245q0-80 40.5-115T346 95t104.5 35T491 245v404h118V245q0-124-69-191.5T346-14 152 53.5 83 245v404h118zm353 103l-75-59-133 101-134-101-75 59 209 161z"/><glyph glyph-name="Udieresis" unicode="Ü" horiz-adv-x="690" d="M201 649V245q0-80 40.5-115T346 95t104.5 35T491 245v404h118V245q0-124-69-191.5T346-14 152 53.5 83 245v404h118zm-1.5 118.5Q180 786 180 814.5t19.5 47.5 50.5 19 51-19 20-47.5-20-47-51-18.5-50.5 18.5zM373 815q0 29 20 48t50.5 19 50.5-19 20-48-20-47-50.5-18-50.5 18-20 47z"/><glyph glyph-name="agrave" unicode="à" horiz-adv-x="585" d="M253 284q58 0 134-19v48q0 51-20.5 75.5t-67 24.5-71.5-18.5-25-52.5H74q0 83 58.5 120T296 499q150 0 194-105 15-36 15-85V0H402l-9 65q-47-79-144-79-94 0-146 46-48 44-48 111.5t53 104T253 284zm-68 480l267-132-30-74-279 104zm202-574q-59 16-110 16-96 0-96-64 0-27 22-46.5T273.5 76t80 32.5T387 190z"/><glyph glyph-name="aacute" unicode="á" horiz-adv-x="585" d="M253 284q58 0 134-19v48q0 51-20.5 75.5t-67 24.5-71.5-18.5-25-52.5H74q0 83 58.5 120T296 499q150 0 194-105 15-36 15-85V0H402l-9 65q-47-79-144-79-94 0-146 46-48 44-48 111.5t53 104T253 284zm198 378L172 558l-30 74 267 132zm-64-472q-59 16-110 16-96 0-96-64 0-27 22-46.5T273.5 76t80 32.5T387 190z"/><glyph glyph-name="acircumflex" unicode="â" horiz-adv-x="585" d="M253 284q58 0 134-19v48q0 51-20.5 75.5t-67 24.5-71.5-18.5-25-52.5H74q0 83 58.5 120T296 499q150 0 194-105 15-36 15-85V0H402l-9 65q-47-79-144-79-94 0-146 46-48 44-48 111.5t53 104T253 284zm253 332l-75-59-133 101-134-101-75 59 209 161zM387 190q-59 16-110 16-96 0-96-64 0-27 22-46.5T273.5 76t80 32.5T387 190z"/><glyph glyph-name="atilde" unicode="ã" horiz-adv-x="585" d="M253 284q58 0 134-19v48q0 51-20.5 75.5t-67 24.5-71.5-18.5-25-52.5H74q0 83 58.5 120T296 499q150 0 194-105 15-36 15-85V0H402l-9 65q-47-79-144-79-94 0-146 46-48 44-48 111.5t53 104T253 284zm115 418q32 0 53 49l50-33q-11-54-39.5-88.5T371 595q-18 0-35.5 7T292 622q-45 23-61 23-35 0-59-50l-47 28q12 61 40.5 94.5T232 751q27 0 63-18.5t48.5-24.5 24.5-6zm19-512q-59 16-110 16-96 0-96-64 0-27 22-46.5T273.5 76t80 32.5T387 190z"/><glyph glyph-name="adieresis" unicode="ä" horiz-adv-x="585" d="M253 284q58 0 134-19v48q0 51-20.5 75.5t-67 24.5-71.5-18.5-25-52.5H74q0 83 58.5 120T296 499q150 0 194-105 15-36 15-85V0H402l-9 65q-47-79-144-79-94 0-146 46-48 44-48 111.5t53 104T253 284zm134-94q-59 16-110 16-96 0-96-64 0-27 22-46.5T273.5 76t80 32.5T387 190zM150.5 631.5Q131 650 131 678.5t19.5 47.5 50.5 19 51-19 20-47.5-20-47-51-18.5-50.5 18.5zM324 679q0 29 20 48t50.5 19 50.5-19 20-48-20-47-50.5-18-50.5 18-20 47z"/><glyph glyph-name="egrave" unicode="è" horiz-adv-x="530" d="M469.5 354q12.5-42 12.5-77t-4-63H164q2-59 29-96t82-37q73 0 87 64h119q-12-73-67-115-57-44-139-44-96 0-161 70-67 73-67 187 0 117 67 188 64 68 161 68 101 0 157-71 25-32 37.5-74zM154 774l267-132-30-74-279 104zm122-369q-50 0-78-32.5T165 289h207q0 79-50 106-19 10-46 10z"/><glyph glyph-name="eacute" unicode="é" horiz-adv-x="530" d="M362 145q-14-64-87-64-55 0-82 37t-29 96h314q4 28 4 63t-12.5 77-37.5 74q-56 71-157 71-97 0-161-68-67-71-67-188 0-114 67-187 65-70 161-70 82 0 139 44 55 42 67 115H362zm58 527L141 568l-30 74 267 132zm-48-383H165q5 51 33 83.5t78 32.5 73-32.5 23-83.5z"/><glyph glyph-name="ecircumflex" unicode="ê" horiz-adv-x="530" d="M476.5 354q12.5-42 12.5-77t-4-63H171q2-59 29-96t82-37q73 0 87 64h119q-12-73-67-115-57-44-139-44-96 0-161 70-67 73-67 187 0 117 67 188 64 68 161 68 101 0 156-71 26-32 38.5-74zm3.5 272l-75-59-133 101-134-101-75 59 209 161zM283 405q-50 0-78-32.5T172 289h207q0 79-51 106-18 10-45 10z"/><glyph glyph-name="edieresis" unicode="ë" horiz-adv-x="530" d="M469.5 354q12.5-42 12.5-77t-4-63H164q2-59 29-96t82-37q73 0 87 64h119q-12-73-67-115-57-44-139-44-96 0-161 70-67 73-67 187 0 117 67 188 64 68 161 68 101 0 157-71 25-32 37.5-74zM276 405q-50 0-78-32.5T165 289h207q0 79-50 106-19 10-46 10zM118.5 631.5Q99 650 99 678.5t19.5 47.5 50.5 19 51-19 20-47.5-20-47-51-18.5-50.5 18.5zM292 679q0 29 20 48t50.5 19 50.5-19 20-48-20-47-50.5-18-50.5 18-20 47z"/><glyph glyph-name="igrave" unicode="ì" horiz-adv-x="328" d="M103 487h118V0H103v487zM50 764l267-132-30-74L8 662z"/><glyph glyph-name="iacute" unicode="í" horiz-adv-x="328" d="M103 0h118v487H103V0zm213 662L37 558 7 632l267 132z"/><glyph glyph-name="icircumflex" unicode="î" horiz-adv-x="328" d="M103 487h118V0H103v487zm267 129l-75-59-133 101L28 557l-75 59 209 161z"/><glyph glyph-name="idieresis" unicode="ï" horiz-adv-x="328" d="M103 487h118V0H103v487zM14.5 631.5Q-5 650-5 678.5T14.5 726 65 745t51-19 20-47.5-20-47T65 613t-50.5 18.5zM188 679q0 29 20 48t50.5 19 50.5-19 20-48-20-47-50.5-18-50.5 18-20 47z"/><glyph glyph-name="ntilde" unicode="ñ" horiz-adv-x="623" d="M363 499q-106 0-154-97l-13 84H93V0h118v225q2 84 35.5 126t80.5 42 73-27.5 26-81.5V0h118v284q0 97-45.5 156T363 499zm21 203q32 0 53 49l50-33q-11-54-39.5-88.5T387 595q-18 0-35.5 7T308 622q-45 23-61 23-35 0-59-50l-47 28q12 61 40.5 94.5T248 751q27 0 63-18.5t48.5-24.5 24.5-6z"/><glyph glyph-name="ograve" unicode="ò" horiz-adv-x="566" d="M284 499q49 0 92-15.5t74-47.5q69-70 69-194 0-122-69-192-62-64-166-64T116 50q-69 69-69 192 0 125 69 194 63 63 168 63zm87-140.5Q341 397 287.5 397T200 358.5 166 243t30.5-115.5T280 89t87 38.5T401 243t-30 115.5zM172 764l267-132-30-74-279 104z"/><glyph glyph-name="oacute" unicode="ó" horiz-adv-x="566" d="M284 499q-50 0-93-15.5T116 436q-69-69-69-194 0-123 69-192 64-64 168-64t166 64q69 70 69 192 0 124-69 194-62 63-166 63zm-84-140.5q34 38.5 87.5 38.5t83.5-38.5T401 243t-34-115.5T280 89t-83.5 38.5T166 243t34 115.5zM438 662L159 558l-30 74 267 132z"/><glyph glyph-name="ocircumflex" unicode="ô" horiz-adv-x="566" d="M284 499q49 0 92-15.5t74-47.5q69-70 69-194 0-122-69-192-62-64-166-64T116 50q-69 69-69 192 0 125 69 194 63 63 168 63zm87-140.5Q341 397 287.5 397T200 358.5 166 243t30.5-115.5T280 89t87 38.5T401 243t-30 115.5zM492 616l-75-59-133 101-134-101-75 59 209 161z"/><glyph glyph-name="otilde" unicode="õ" horiz-adv-x="566" d="M284 499q-50 0-93-15.5T116 436q-69-69-69-194 0-123 69-192 64-64 168-64t166 64q69 70 69 192 0 124-69 194-62 63-166 63zm-84-140.5q34 38.5 87.5 38.5t83.5-38.5T401 243t-34-115.5T280 89t-83.5 38.5T166 243t34 115.5zM353 702q32 0 53 49l50-33q-11-54-39.5-88.5T356 595q-18 0-35.5 7T276 622q-44 23-60 23-35 0-59-50l-47 28q12 61 40.5 94.5T217 751q27 0 63-18.5t48.5-24.5 24.5-6z"/><glyph glyph-name="odieresis" unicode="ö" horiz-adv-x="566" d="M284 499q49 0 92-15.5t74-47.5q69-70 69-194 0-122-69-192-62-64-166-64T116 50q-69 69-69 192 0 125 69 194 63 63 168 63zm87-140.5Q341 397 287.5 397T200 358.5 166 243t30.5-115.5T280 89t87 38.5T401 243t-30 115.5zm-234.5 273Q117 650 117 678.5t19.5 47.5 50.5 19 51-19 20-47.5-20-47-51-18.5-50.5 18.5zM310 679q0 29 20 48t50.5 19 50.5-19 20-48-20-47-50.5-18-50.5 18-20 47z"/><glyph glyph-name="ugrave" unicode="ù" horiz-adv-x="627" d="M416 88Q370-9 268-9 139-9 98 92q-15 35-15 85v310h118V189q0-48 23-71.5T280.5 94t56.5 9.5 40 28.5q37 43 39 115v240h118V0H416v88zM201 784l267-132-30-74-279 104z"/><glyph glyph-name="uacute" unicode="ú" horiz-adv-x="627" d="M268-9q102 0 148 97V0h118v487H416V255q0-77-38-121-34-40-82.5-40T224 117.5 201 189v298H83V177q0-94 53-143Q183-9 268-9zm199 691L188 578l-30 74 267 132z"/><glyph glyph-name="ucircumflex" unicode="û" horiz-adv-x="627" d="M416 88Q370-9 268-9 139-9 98 92q-15 35-15 85v310h118V189q0-48 23-71.5T280.5 94t56.5 9.5 40 28.5q37 43 39 115v240h118V0H416v88zm105 548l-75-59-133 101-134-101-75 59 209 161z"/><glyph glyph-name="udieresis" unicode="ü" horiz-adv-x="627" d="M416 88Q370-9 268-9 139-9 98 92q-15 35-15 85v310h118V189q0-48 23-71.5T280.5 94t56.5 9.5 40 28.5q37 43 39 115v240h118V0H416v88zM165.5 631.5Q146 650 146 678.5t19.5 47.5 50.5 19 51-19 20-47.5-20-47-51-18.5-50.5 18.5zM339 679q0 29 20 48t50.5 19 50.5-19 20-48-20-47-50.5-18-50.5 18-20 47z"/><glyph glyph-name="dotlessi" unicode="ı" d="M93 487h118V0H93v487z"/><glyph glyph-name="apostrophe" unicode="ʼ" horiz-adv-x="237" d="M80.5 537.5Q61 555 61 584.5T84 635t63 21 65-31 25-76q0-73-66-133-21-19-47-32l-88 44q33 17 58.5 38t33.5 49q-28 5-47.5 22.5z"/><glyph glyph-name="circumflex" unicode="ˆ" horiz-adv-x="465" d="M441 752l-75-59-133 101L99 693l-75 59 209 161z"/><glyph glyph-name="tilde" unicode="˜" horiz-adv-x="394" d="M266 838q32 0 53 49l50-33q-11-54-39.5-88.5T269 731q-18 0-35.5 7T190 758q-45 23-61 23-35 0-59-50l-47 28q12 61 40.5 94.5T130 887q27 0 63-18.5t48.5-24.5 24.5-6z"/><glyph glyph-name="endash" unicode="–" horiz-adv-x="525" d="M55 353h415V250H55v103z"/><glyph glyph-name="emdash" unicode="—" horiz-adv-x="768" d="M55 353h659V250H55v103z"/><glyph glyph-name="quoteleft" unicode="‘" horiz-adv-x="271" d="M189.5 400Q167 379 127 379t-65.5 31.5-25.5 78T68.5 580t86.5 72l83-46q-77-36-93-87 28-5 47.5-22t19.5-46.5-22.5-50.5z"/><glyph glyph-name="quoteright" unicode="’" horiz-adv-x="271" d="M77 631.5q23 20.5 62.5 20.5t65-31.5 25.5-78-32.5-91.5-86.5-72l-82 45q77 39 93 88-29 5-48.5 22T54 581t23 50.5z"/><glyph glyph-name="rupeesymbol" unicode="₨" horiz-adv-x="604" d="M83 649h464v-66H365q60-36 75-94h107v-67H443q-7-64-54-109.5T243 252L504 0H338L83 246v67h77q73 2 110.5 32t45.5 77H83v67h229q-11 42-50 68t-110 26H83v66z"/><glyph glyph-name="minus" unicode="−" horiz-adv-x="506" d="M427 353V250H79v103h348z"/><glyph glyph-name="zero.propold" horiz-adv-x="570" d="M285 583q106 0 171-77 66-79 66-221T456 63q-64-77-171-77T114 63q-67 81-67 222t67 221q65 77 171 77zm120-298q0 192-120 192-119 0-119-192T285.5 93 405 285z"/><glyph glyph-name="one.propold" horiz-adv-x="357" d="M42 518q74 9 132 53h89V0H145v430q-48-24-103-26v114z"/><glyph glyph-name="two.propold" horiz-adv-x="595" d="M313 480q-101 0-111-80H71q2 90 68 138 63 45 168 45 98 0 161-52 61-50 61-124t-39.5-114.5T362 230l-105-26q-42-11-60.5-28.5T178 132v-24h355V0H60v98q0 83 38 128 37 42 118 62l95 23q55 14 77.5 36.5T411 403t-26 55-72 22z"/><glyph glyph-name="three.propold" horiz-adv-x="588" d="M501 407q0-100-105-141 61-23 94-71t33-101.5T505 3t-51-64q-71-58-181-58-106 0-176 52Q20-10 20 95h120q4-60 41-87t93.5-27 93 32T404 93.5t-36 81T266 207h-67v93h61q57 0 90 24.5t33 66.5-29 67.5-77.5 25.5-80-22.5T159 398H33q17 144 147 175 42 10 93.5 10t94-13.5T440 532q61-48 61-125z"/><glyph glyph-name="four.propold" horiz-adv-x="596" d="M466 574V151h112V49H466v-157H347V49H18v89l332 436h116zM148 138h205v263z"/><glyph glyph-name="five.propold" horiz-adv-x="589" d="M503 581V473H230l-15-156q45 12 95.5 12t92.5-15.5 72-43.5q62-58 62-155 0-101-73-168-71-66-180-66-96 0-158 54Q57-6 57 92h117q0-51 31-77t82-26q56 0 94 35 38 34 38 90.5T383.5 202 275 233H91l31 348h381z"/><glyph glyph-name="six.propold" horiz-adv-x="607" d="M425 471q-5 39-28 61.5T333.5 555t-71-17.5T210 487q-44-68-44-184 0-43 3-65 11 86 65 126 47 34 117 34 90 0 149-58 58-56 58-148T493 43 323-14q-122 0-199 92T47 313q0 166 77 259 75 90 204 90 98 0 158-52 61-53 65-139H425zM242.5 272.5Q210 244 210 197t32.5-74.5 80-27.5 80.5 27.5 33 74.5-34 77q-31 27-79 27t-80.5-28.5z"/><glyph glyph-name="seven.propold" horiz-adv-x="498" d="M480 583V481L180-104H36l323 584H24v103h456z"/><glyph glyph-name="eight.propold" horiz-adv-x="647" d="M502 609.5Q575 557 575 476q0-49-33.5-87.5T445 339q83-33 115-67 38-40 38-100 0-83-72-134-75-52-203-52-123 0-199 54-75 52-75 135 0 61 42.5 98.5T200 319q-87 42-118 109-11 25-11 57 0 82 65.5 129.5t179 47.5T502 609.5zM303 278q-91-6-123-58-9-15-9-35t12-37 33-29q40-24 112.5-24t110 19.5 37.5 48-18.5 46T407 239zm-44 133l75-29q48 0 84 24 35 24 35 63t-36 62.5-94 23.5q-56 0-93-21t-37-58.5 66-64.5z"/><glyph glyph-name="nine.propold" horiz-adv-x="609" d="M296 583q60 0 111.5-29.5T494 476q69-98 69-239 0-165-75-262-72-94-196-94-99 0-164 57Q62-5 62 86h124q3-46 29.5-71.5T292-11q79 0 116 69.5T445 246q0 37-4 71-10-75-57.5-114.5T270 163q-92 0-154 59-63 59-63 149 0 93 65 152 66 60 178 60zm-9-103q-53 0-82.5-31T175 370t30-79 83-31 83 32 30 79-30.5 78-83.5 31z"/></font>
</defs>
</svg>
